<svg version="1.1" id="Layer_1" xmlns="http://www.w3.org/2000/svg" xmlns:xlink="http://www.w3.org/1999/xlink" x="0px" y="0px"
	 width="100%" viewBox="0 0 400 600" enable-background="new 0 0 400 600" xml:space="preserve">
<path fill="#000000" opacity="1.000000" stroke="none" 
	d="
M1.000000,214.000000 
	C1.000000,143.015350 1.000000,72.030701 1.000000,1.023024 
	C134.289154,1.023024 267.578339,1.023024 400.933746,1.023024 
	C400.933746,200.912582 400.933746,400.825195 400.933746,600.868896 
	C267.783020,600.868896 134.565857,600.868896 1.000000,600.868896 
	C1.000000,475.976898 1.000000,350.953461 1.076554,224.952698 
	C7.276557,227.232941 13.022871,226.500793 19.714270,221.949142 
	C15.557834,222.430710 12.690047,223.044891 9.824890,223.032852 
	C4.754248,223.011566 1.154212,219.141190 1.000000,214.000000 
M119.934196,216.344055 
	C120.174751,216.132111 120.379997,215.890213 121.069427,215.243088 
	C122.069946,213.925964 123.070473,212.608841 124.757980,211.164734 
	C128.440170,207.479156 130.899643,203.204453 130.068512,197.841446 
	C129.881836,196.636948 128.128265,195.675278 127.096039,194.601822 
	C126.514076,195.624817 125.932114,196.647827 125.074966,197.293488 
	C124.882927,197.134506 124.690895,196.975540 124.498863,196.816559 
	C124.431946,197.071121 124.365036,197.325699 124.298119,197.580261 
	C124.643906,197.611649 124.989700,197.643036 126.001503,197.241699 
	C126.407112,198.823853 127.424095,200.549622 127.093063,201.958710 
	C126.368614,205.042419 124.960175,207.965454 123.285759,211.260788 
	C122.115875,212.435577 120.945999,213.610367 119.335083,215.004257 
	C119.061157,215.210983 118.883698,215.481110 118.362267,216.025574 
	C118.088554,216.229431 117.913902,216.497757 117.391083,217.049683 
	C117.112892,217.257538 116.932739,217.530167 116.367432,218.222595 
	C116.354820,218.519119 116.342216,218.815628 116.329613,219.112152 
	C116.720978,219.004379 117.112335,218.896606 117.942810,218.436783 
	C118.182442,218.148514 118.422073,217.860245 119.000671,217.300308 
	C119.214485,217.100845 119.396812,216.875870 119.934196,216.344055 
M27.584635,215.940720 
	C27.864624,215.741928 28.048332,215.476501 28.806446,214.745712 
	C32.313835,214.145111 35.821224,213.544525 39.205734,213.753662 
	C39.110397,216.563660 38.653313,219.420792 39.011856,222.171631 
	C39.453831,225.562546 41.448677,226.933548 44.064262,225.539429 
	C39.343765,214.804321 43.432739,206.024384 49.177887,196.542770 
	C41.780415,195.697250 35.147331,194.939117 28.514250,194.180969 
	C28.462467,194.676208 28.410683,195.171432 28.358900,195.666672 
	C32.211823,196.204208 36.099968,196.575882 39.895855,197.382004 
	C41.011055,197.618820 41.864658,199.087463 42.375874,200.136063 
	C41.931900,200.573822 41.487923,201.011597 40.396019,201.774902 
	C40.247753,202.198257 40.099483,202.621613 40.025650,203.024460 
	C40.025650,203.024460 40.036629,202.948044 39.358002,202.907349 
	C39.221790,203.285263 39.085579,203.663162 39.025238,204.032364 
	C39.025238,204.032364 39.049732,203.960037 38.420063,203.669739 
	C37.924393,204.114685 37.428719,204.559647 37.003456,205.002670 
	C37.003456,205.002670 37.023880,204.935257 36.496681,205.104202 
	C36.309750,205.410309 36.122818,205.716415 36.009293,206.009308 
	C36.009293,206.009308 36.022598,205.935913 35.495300,206.104080 
	C35.308838,206.410294 35.122379,206.716507 35.009388,207.009399 
	C35.009388,207.009399 35.022789,206.935944 34.494972,207.103455 
	C34.308620,207.409897 34.122272,207.716339 34.009403,208.009399 
	C34.009403,208.009399 34.022820,207.935928 33.495461,208.103699 
	C33.308937,208.409821 33.122417,208.715942 33.000633,209.004135 
	C33.000633,209.004135 32.996410,208.937103 32.311253,209.236679 
	C29.632143,210.315262 26.953032,211.393845 24.392277,212.424774 
	C25.248495,213.014618 26.264996,213.714874 26.874897,214.739365 
	C26.640215,214.993637 26.405533,215.247910 25.760164,215.998413 
	C25.762115,216.235977 25.764069,216.473557 25.766022,216.711121 
	C26.223783,216.524109 26.681545,216.337097 27.584635,215.940720 
M371.011047,215.674408 
	C371.045227,216.044006 371.079407,216.413620 371.113586,216.783218 
	C371.459656,216.568039 371.805756,216.352859 372.593323,215.933701 
	C372.869476,215.736404 373.050110,215.473480 373.806000,214.746155 
	C377.313538,214.145416 380.821045,213.544678 384.205719,213.753693 
	C384.110382,216.563690 383.653290,219.420837 384.011871,222.171677 
	C384.453857,225.562561 386.448700,226.933594 389.332306,225.396530 
	C383.949097,214.752960 388.662842,206.054291 394.127533,196.536942 
	C386.789551,195.698273 380.158997,194.940475 373.528442,194.182663 
	C373.471924,194.677353 373.415375,195.172043 373.358826,195.666718 
	C377.211761,196.204239 381.099945,196.575882 384.895844,197.382019 
	C386.011047,197.618820 386.864655,199.087479 387.375916,200.136063 
	C386.931915,200.573822 386.487915,201.011581 385.395996,201.774887 
	C385.247742,202.198242 385.099487,202.621613 385.025635,203.024445 
	C385.025635,203.024445 385.036621,202.948044 384.357971,202.907333 
	C384.221771,203.285248 384.085571,203.663162 384.025238,204.032349 
	C384.025238,204.032349 384.049744,203.960037 383.420074,203.669739 
	C382.924408,204.114700 382.428711,204.559647 382.003418,205.002640 
	C382.003418,205.002640 382.023865,204.935257 381.496674,205.104202 
	C381.309723,205.410294 381.122803,205.716400 381.009277,206.009308 
	C381.009277,206.009308 381.022614,205.935913 380.495300,206.104095 
	C380.308838,206.410309 380.122375,206.716507 380.009369,207.009384 
	C380.009369,207.009384 380.022797,206.935944 379.494965,207.103455 
	C379.308624,207.409897 379.122284,207.716339 379.009369,208.009384 
	C379.009369,208.009384 379.022827,207.935928 378.495422,208.103699 
	C378.308899,208.409821 378.122375,208.715942 378.000549,209.004105 
	C378.000549,209.004105 377.996399,208.937103 377.311218,209.236679 
	C374.631775,210.315277 371.952362,211.393890 369.395966,212.422974 
	C370.248535,213.014496 371.261414,213.717224 371.972076,214.648621 
	C371.779510,214.814484 371.606598,214.998795 371.011047,215.674408 
M159.495453,208.103714 
	C159.308929,208.409836 159.122406,208.715942 159.000610,209.004120 
	C159.000610,209.004120 158.996414,208.937103 158.311249,209.236679 
	C155.631912,210.315308 152.952560,211.393936 150.394836,212.423599 
	C151.247742,213.014130 152.261841,213.716263 152.973038,214.647858 
	C152.780029,214.814270 152.606598,214.999069 152.010452,215.675125 
	C152.044754,216.044617 152.079041,216.414093 152.113312,216.783569 
	C152.459381,216.568375 152.805450,216.353165 153.593216,215.933807 
	C153.869492,215.736374 154.050262,215.473312 154.806290,214.745880 
	C158.313721,214.145233 161.821167,213.544586 165.205734,213.753677 
	C165.110397,216.563690 164.653290,219.420837 165.011871,222.171692 
	C165.453873,225.562561 167.448715,226.933624 170.064301,225.539383 
	C165.343735,214.804291 169.432785,206.024368 175.177917,196.542725 
	C167.780396,195.697220 161.147324,194.939087 154.514252,194.180954 
	C154.462463,194.676208 154.410675,195.171463 154.358887,195.666702 
	C158.211823,196.204239 162.099960,196.575897 165.895844,197.382004 
	C167.011047,197.618820 167.864670,199.087463 168.375870,200.136078 
	C167.931900,200.573837 167.487930,201.011597 166.396027,201.774887 
	C166.247757,202.198257 166.099503,202.621613 166.025635,203.024445 
	C166.025635,203.024445 166.036636,202.948044 165.357986,202.907349 
	C165.221786,203.285263 165.085571,203.663162 165.025223,204.032349 
	C165.025223,204.032349 165.049728,203.960037 164.420059,203.669739 
	C163.924393,204.114700 163.428711,204.559647 163.003433,205.002655 
	C163.003433,205.002655 163.023880,204.935257 162.496674,205.104202 
	C162.309738,205.410309 162.122818,205.716400 162.009308,206.009308 
	C162.009308,206.009308 162.022598,205.935913 161.495285,206.104095 
	C161.308823,206.410309 161.122375,206.716507 161.009369,207.009399 
	C161.009369,207.009399 161.022781,206.935944 160.494965,207.103455 
	C160.308624,207.409897 160.122284,207.716339 160.009399,208.009399 
	C160.009399,208.009399 160.022812,207.935928 159.495453,208.103714 
M187.859482,197.981583 
	C187.751999,197.911438 187.644531,197.841293 187.537064,197.771133 
	C187.613998,197.671646 187.690933,197.572174 187.767883,197.472702 
	C187.840363,197.558716 187.912857,197.644730 188.357117,197.950470 
	C188.135040,198.063538 187.912964,198.176620 187.690887,198.289703 
	C187.773178,198.059189 187.855469,197.828674 187.859482,197.981583 
M291.041077,201.554932 
	C290.638641,201.978607 290.236206,202.402283 289.234161,203.117096 
	C286.475250,206.102356 283.716339,209.087601 280.616302,212.441956 
	C284.467896,212.661514 287.243530,212.819733 289.984955,213.781769 
	C289.886322,216.596832 289.423706,219.459015 289.780518,222.215118 
	C290.233978,225.717606 292.332886,226.920837 295.213593,225.370010 
	C289.423920,214.796707 294.646210,206.139862 299.236694,197.471893 
	C291.129700,194.368454 284.153107,193.780838 278.876373,195.528046 
	C283.372772,196.306183 288.202240,197.141968 293.479828,198.600388 
	C293.409607,199.102432 293.339417,199.604477 292.952576,200.534119 
	C292.979309,200.709473 293.006012,200.884811 292.548828,200.771057 
	C292.210052,200.922867 291.871277,201.074661 291.041077,201.554932 
M80.188408,206.511551 
	C80.235252,205.987000 80.282089,205.462448 80.328934,204.937897 
	C79.442772,205.588150 78.556610,206.238403 77.064468,206.936691 
	C76.701927,207.108612 76.339378,207.280533 75.214119,207.430679 
	C73.833603,207.531418 72.453079,207.632172 71.201889,207.723480 
	C73.645302,210.390442 76.784592,212.423996 77.654274,215.175064 
	C78.454147,217.705276 76.811668,221.007599 76.245140,223.969772 
	C78.356773,222.579895 80.458534,220.556396 81.172432,218.125351 
	C82.317978,214.224350 80.559029,211.013214 76.963219,208.376602 
	C77.697929,207.938782 78.432640,207.500961 80.188408,206.511551 
M368.341583,217.926682 
	C368.197052,218.473267 368.052521,219.019852 367.907990,219.566452 
	C368.550964,219.209854 369.193939,218.853256 370.276093,217.982269 
	C369.776184,217.910690 369.276306,217.839096 368.341583,217.926682 
M149.341599,217.926666 
	C149.197067,218.473251 149.052536,219.019836 148.907990,219.566422 
	C149.550964,219.209824 150.193924,218.853241 151.276077,217.982254 
	C150.776199,217.910660 150.276306,217.839066 149.341599,217.926666 
M23.341579,217.926682 
	C23.197046,218.473267 23.052513,219.019836 22.907986,219.566422 
	C23.550955,219.209839 24.193926,218.853256 25.276054,217.982285 
	C24.776167,217.910675 24.276279,217.839066 23.341579,217.926682 
M211.604843,215.948914 
	C212.268768,215.565109 212.932693,215.181305 213.596619,214.797501 
	C213.242126,214.488968 212.887634,214.180420 212.533142,213.871872 
	C211.992783,214.563232 211.452423,215.254593 210.623077,216.168060 
	C210.535492,216.492691 210.447906,216.817307 210.360306,217.141937 
	C210.606430,216.798004 210.852554,216.454086 211.604843,215.948914 
M62.248535,223.928314 
	C58.792469,222.126938 55.336403,220.325562 51.880337,218.524185 
	C51.619675,219.075821 51.359009,219.627472 51.098343,220.179108 
	C54.469013,223.040527 57.994904,225.565979 63.405476,225.165756 
	C63.909725,225.060577 64.413979,224.955399 64.918228,224.850235 
	C64.263641,224.572586 63.609055,224.294952 62.248535,223.928314 
M73.287941,194.165298 
	C72.537331,194.335083 71.786720,194.504868 70.421951,194.531799 
	C69.077682,194.768829 67.733414,195.005875 66.094406,195.294891 
	C67.716301,196.000946 68.881020,196.507980 69.461327,197.353378 
	C66.326065,204.456955 63.190807,211.560532 60.055550,218.664108 
	C60.576057,218.953766 61.096565,219.243423 61.617077,219.533096 
	C63.065922,216.948837 64.767838,214.470856 65.907631,211.756805 
	C67.894577,207.025558 69.535179,202.148834 71.905540,196.981293 
	C73.686844,197.304993 76.381821,197.030701 77.064331,198.073547 
	C78.612991,200.439789 79.171204,203.454239 80.507568,207.280151 
	C81.386902,204.724716 83.309883,201.904297 82.574913,200.681534 
	C81.154655,198.318680 78.235275,196.856888 75.610146,194.732544 
	C75.094017,194.546799 74.577881,194.361038 73.287941,194.165298 
M115.485092,220.810043 
	C115.425926,220.622467 115.366753,220.434875 115.307587,220.247299 
	C115.117683,220.394958 114.927788,220.542603 114.135544,220.076401 
	C113.588333,213.406326 113.041130,206.736237 112.493919,200.066162 
	C107.991653,208.369186 112.123253,216.961807 111.930717,225.709991 
	C112.938583,224.125824 113.946442,222.541641 115.485092,220.810043 
M233.676895,198.767380 
	C234.562057,197.945831 235.447220,197.124283 236.332382,196.302750 
	C236.246277,195.910858 236.160172,195.518967 236.074081,195.127075 
	C231.949951,195.127075 227.825836,195.127075 223.701721,195.127075 
	C226.046356,196.194290 228.471085,196.366669 230.830521,196.854691 
	C231.318390,196.955597 231.563416,198.230652 231.333603,199.299271 
	C230.296112,201.164764 229.160400,202.983566 228.245636,204.907425 
	C227.056595,207.408157 226.185638,210.070206 224.863419,212.491165 
	C224.488388,213.177856 223.017792,213.266220 222.049606,213.628967 
	C221.786667,212.620087 221.190079,211.540817 221.382690,210.628067 
	C221.503189,210.057037 223.156021,209.191193 223.516113,209.418076 
	C224.257812,209.885406 225.173309,211.148666 224.997879,211.816742 
	C224.180634,214.929123 223.015686,217.950211 221.548233,221.296539 
	C221.299698,221.844955 221.051147,222.393372 220.802597,222.941788 
	C221.543945,222.582779 222.285294,222.223770 223.441010,221.353577 
	C225.814133,218.180618 228.187256,215.007660 230.187683,212.332993 
	C229.124054,207.367722 232.064713,203.350632 233.676895,198.767380 
M185.297180,202.855743 
	C183.995651,203.270264 181.693466,203.472809 181.553543,204.133377 
	C180.580536,208.726639 179.258316,213.479599 179.628677,218.053345 
	C179.952560,222.053268 183.202423,224.798172 188.062027,225.082001 
	C181.379578,215.788055 180.608047,207.566132 184.886414,202.129883 
	C185.079132,201.691849 185.271835,201.253830 185.464539,200.815796 
	C185.724731,200.969391 185.984924,201.122986 186.245117,201.276581 
	C186.005890,201.486740 185.766663,201.696915 185.297180,202.855743 
M341.642578,204.794022 
	C342.299744,198.844788 338.996429,193.940186 333.766907,193.804703 
	C331.308228,193.740997 328.820312,194.806473 325.888184,195.462631 
	C327.189514,196.120682 327.964325,196.512482 328.254883,196.659409 
	C325.303925,204.547089 322.447266,212.182755 319.590607,219.818420 
	C321.983337,218.145966 323.814941,215.937714 324.872284,213.406113 
	C326.788971,208.817078 328.073303,203.965912 329.944946,199.355438 
	C331.528961,195.453568 334.186859,195.124756 337.057892,198.282333 
	C340.038757,201.560699 339.258850,205.152634 338.258118,209.309647 
	C339.278717,208.039642 340.299286,206.769623 341.642578,204.794022 
M100.248985,214.656143 
	C100.751144,215.078156 101.277016,215.475403 101.749779,215.928116 
	C102.426247,216.575836 103.063881,217.264130 103.718102,217.935104 
	C103.045792,218.557678 102.457939,219.444321 101.667374,219.697205 
	C101.238556,219.834351 99.919464,218.839874 99.957100,218.447433 
	C100.041313,217.569153 100.641022,216.689346 101.188286,215.922577 
	C101.625145,215.310516 102.785095,214.864807 102.785332,214.344879 
	C102.787682,209.094315 103.453735,203.645233 102.268044,198.646957 
	C100.993950,193.276062 94.732491,192.627563 90.943405,196.837646 
	C97.927582,196.476715 100.528709,198.728302 100.916275,205.848206 
	C101.059151,208.473068 100.660973,211.127380 100.248985,214.656143 
M236.156311,212.833939 
	C235.829971,212.884171 235.468369,212.864410 235.187881,213.005661 
	C234.940994,213.129990 234.784775,213.434341 234.586121,213.658722 
	C236.745651,214.215927 238.905182,214.773132 241.264755,215.381958 
	C240.790207,217.410645 240.312576,218.994232 240.061539,220.612961 
	C239.355331,225.166641 240.794327,226.434601 245.094040,224.693573 
	C239.518616,220.964066 245.347183,217.565994 245.451706,213.899048 
	C245.570847,209.720322 247.640976,205.597214 248.863159,201.449921 
	C248.553162,201.312820 248.243164,201.175705 247.933167,201.038605 
	C245.877182,205.096252 243.821182,209.153900 241.687317,213.365250 
	C240.104172,213.197418 238.492004,213.026520 236.156311,212.833939 
M270.044556,222.569305 
	C269.809021,222.106796 269.476105,221.216766 269.352417,221.244949 
	C266.954498,221.791306 264.609894,222.815063 262.196838,223.003204 
	C256.307434,223.462357 254.172241,221.631958 253.272842,216.016632 
	C250.139618,221.614273 252.414185,226.275558 258.545837,225.898621 
	C262.214691,225.673096 265.794769,224.003693 270.044556,222.569305 
M331.814880,221.660461 
	C335.484375,226.539749 336.881744,226.978699 340.831573,224.321625 
	C332.513336,222.924286 332.902069,215.628510 330.861267,209.978806 
	C328.123260,211.833069 328.178558,212.890884 331.814880,221.660461 
M363.463287,222.194092 
	C357.403809,222.761292 350.874756,225.516266 346.544159,217.495392 
	C345.922577,223.419724 347.677307,226.190567 352.119171,225.871948 
	C355.922058,225.599167 359.628021,223.974533 363.463287,222.194092 
M135.412415,226.000153 
	C138.541702,225.085907 141.670990,224.171677 144.800278,223.257431 
	C144.701462,222.803909 144.602646,222.350403 144.503845,221.896881 
	C138.216614,223.384201 131.941345,224.811066 127.117767,217.436722 
	C127.268761,224.354691 128.536865,225.596436 135.412415,226.000153 
M304.977997,220.359375 
	C304.977997,218.226120 304.977997,216.092865 304.977997,213.959610 
	C305.497498,214.155640 306.016998,214.351669 306.536469,214.547699 
	C306.221619,215.214218 306.020355,215.973816 305.567200,216.527054 
	C304.732758,217.545670 302.912445,218.528458 302.998627,219.373611 
	C303.196136,221.310074 303.761047,223.928680 305.136932,224.876495 
	C308.057098,226.888153 311.471466,226.668182 313.745544,225.046082 
	C311.034790,223.805573 308.104370,222.464539 304.977997,220.359375 
M204.201401,197.819443 
	C204.688995,198.731781 205.176605,199.644119 205.664200,200.556458 
	C206.606995,199.021988 207.171051,197.131180 206.487137,195.985016 
	C205.148407,193.741364 197.054642,193.896133 193.574432,195.617416 
	C196.608093,196.143433 200.115311,196.751556 204.201401,197.819443 
M214.625641,224.679306 
	C213.873169,224.580139 213.120682,224.480972 212.368210,224.381805 
	C212.347610,224.711319 212.327011,225.040848 212.306427,225.370361 
	C213.070023,225.284775 213.833618,225.199188 214.625641,224.679306 
M98.980972,221.997208 
	C99.238983,222.129974 99.496994,222.262741 99.755005,222.395523 
	C99.561256,222.604736 99.367516,222.813965 99.173767,223.023178 
	C99.036499,222.763412 98.899231,222.503647 98.980972,221.997208 
M189.988251,196.662979 
	C190.340057,196.868332 190.691864,197.073685 191.043671,197.279053 
	C190.677917,197.278610 190.312149,197.278183 189.988251,196.662979 
M88.613182,197.205750 
	C88.792946,197.557770 88.972717,197.909805 89.152481,198.261841 
	C88.810799,198.386673 88.469116,198.511505 88.127426,198.636322 
	C88.035751,198.253967 87.944077,197.871628 88.613182,197.205750 
M74.502365,225.527603 
	C74.502365,225.527603 74.487106,225.484787 74.502365,225.527603 
z"/>
<path fill="#BE9D31" opacity="1.000000" stroke="none" 
	d="
M1.000000,214.458069 
	C1.154212,219.141190 4.754248,223.011566 9.824890,223.032852 
	C12.690047,223.044891 15.557834,222.430710 19.714270,221.949142 
	C13.022871,226.500793 7.276557,227.232941 1.076554,224.487701 
	C1.000000,221.638718 1.000000,218.277420 1.000000,214.458069 
z"/>
<path fill="#C19F32" opacity="1.000000" stroke="none" 
	d="
M341.481201,205.146820 
	C340.299286,206.769623 339.278717,208.039642 338.258118,209.309647 
	C339.258850,205.152634 340.038757,201.560699 337.057892,198.282333 
	C334.186859,195.124756 331.528961,195.453568 329.944946,199.355438 
	C328.073303,203.965912 326.788971,208.817078 324.872284,213.406113 
	C323.814941,215.937714 321.983337,218.145966 319.590607,219.818420 
	C322.447266,212.182755 325.303925,204.547089 328.254883,196.659409 
	C327.964325,196.512482 327.189514,196.120682 325.888184,195.462631 
	C328.820312,194.806473 331.308228,193.740997 333.766907,193.804703 
	C338.996429,193.940186 342.299744,198.844788 341.481201,205.146820 
z"/>
<path fill="#BB9B31" opacity="1.000000" stroke="none" 
	d="
M293.032684,201.060135 
	C293.006012,200.884811 292.979309,200.709473 293.404236,200.149948 
	C293.581177,199.169769 293.306458,198.573761 293.031738,197.977753 
	C288.202240,197.141968 283.372772,196.306183 278.876373,195.528046 
	C284.153107,193.780838 291.129700,194.368454 299.236694,197.471893 
	C294.646210,206.139862 289.423920,214.796707 295.213593,225.370010 
	C292.332886,226.920837 290.233978,225.717606 289.780518,222.215118 
	C289.423706,219.459015 289.886322,216.596832 290.099609,213.102203 
	C290.185974,212.034164 290.157654,211.645676 290.379242,210.976990 
	C291.471558,207.812683 292.313965,204.928589 293.106934,202.043243 
	C293.057495,202.041977 293.055450,202.140900 293.364075,202.165466 
	C293.443970,201.769409 293.215210,201.348770 292.969635,200.971085 
	C292.952820,201.014023 293.032684,201.060135 293.032684,201.060135 
z"/>
<path fill="#C19F32" opacity="1.000000" stroke="none" 
	d="
M42.838150,199.991562 
	C41.864658,199.087463 41.011055,197.618820 39.895855,197.382004 
	C36.099968,196.575882 32.211823,196.204208 28.358900,195.666672 
	C28.410683,195.171432 28.462467,194.676208 28.514250,194.180969 
	C35.147331,194.939117 41.780415,195.697250 49.177887,196.542770 
	C43.432739,206.024384 39.343765,214.804321 44.064262,225.539429 
	C41.448677,226.933548 39.453831,225.562546 39.011856,222.171631 
	C38.653313,219.420792 39.110397,216.563660 39.435417,213.130829 
	C39.742767,211.966400 39.820431,211.424820 39.980247,210.521393 
	C40.987648,206.770218 41.912899,203.380890 42.838150,199.991562 
z"/>
<path fill="#C19F32" opacity="1.000000" stroke="none" 
	d="
M168.838165,199.991562 
	C167.864670,199.087463 167.011047,197.618820 165.895844,197.382004 
	C162.099960,196.575897 158.211823,196.204239 154.358887,195.666702 
	C154.410675,195.171463 154.462463,194.676208 154.514252,194.180954 
	C161.147324,194.939087 167.780396,195.697220 175.177917,196.542725 
	C169.432785,206.024368 165.343735,214.804291 170.064301,225.539383 
	C167.448715,226.933624 165.453873,225.562561 165.011871,222.171692 
	C164.653290,219.420837 165.110397,216.563690 165.435425,213.130859 
	C165.742767,211.966446 165.820419,211.424835 165.980255,210.521393 
	C166.987656,206.770218 167.912903,203.380890 168.838165,199.991562 
z"/>
<path fill="#C19F32" opacity="1.000000" stroke="none" 
	d="
M387.838165,199.991577 
	C386.864655,199.087479 386.011047,197.618820 384.895844,197.382019 
	C381.099945,196.575882 377.211761,196.204239 373.358826,195.666718 
	C373.415375,195.172043 373.471924,194.677353 373.528442,194.182663 
	C380.158997,194.940475 386.789551,195.698273 394.127533,196.536942 
	C388.662842,206.054291 383.949097,214.752960 389.332306,225.396530 
	C386.448700,226.933594 384.453857,225.562561 384.011871,222.171677 
	C383.653290,219.420837 384.110382,216.563690 384.435394,213.130859 
	C384.742767,211.966431 384.820435,211.424835 384.980255,210.521393 
	C385.987671,206.770218 386.912903,203.380890 387.838165,199.991577 
z"/>
<path fill="#BB9B31" opacity="1.000000" stroke="none" 
	d="
M100.379280,214.212189 
	C100.660973,211.127380 101.059151,208.473068 100.916275,205.848206 
	C100.528709,198.728302 97.927582,196.476715 90.943405,196.837646 
	C94.732491,192.627563 100.993950,193.276062 102.268044,198.646957 
	C103.453735,203.645233 102.787682,209.094315 102.785332,214.344879 
	C102.785095,214.864807 101.625145,215.310516 101.188286,215.922577 
	C100.641022,216.689346 100.041313,217.569153 99.957100,218.447433 
	C99.919464,218.839874 101.238556,219.834351 101.667374,219.697205 
	C102.457939,219.444321 103.045792,218.557678 103.718102,217.935104 
	C103.063881,217.264130 102.426247,216.575836 101.749779,215.928116 
	C101.277016,215.475403 100.751144,215.078156 100.379280,214.212189 
z"/>
<path fill="#BE9D31" opacity="1.000000" stroke="none" 
	d="
M236.518066,212.844788 
	C238.492004,213.026520 240.104172,213.197418 241.687317,213.365250 
	C243.821182,209.153900 245.877182,205.096252 247.933167,201.038605 
	C248.243164,201.175705 248.553162,201.312820 248.863159,201.449921 
	C247.640976,205.597214 245.570847,209.720322 245.451706,213.899048 
	C245.347183,217.565994 239.518616,220.964066 245.094040,224.693573 
	C240.794327,226.434601 239.355331,225.166641 240.061539,220.612961 
	C240.312576,218.994232 240.790207,217.410645 241.264755,215.381958 
	C238.905182,214.773132 236.745651,214.215927 234.587326,213.658966 
	C234.784775,213.434341 234.940994,213.129990 235.187881,213.005661 
	C235.468369,212.864410 235.829971,212.884171 236.518066,212.844788 
z"/>
<path fill="#C19F32" opacity="1.000000" stroke="none" 
	d="
M185.667496,201.845016 
	C180.608047,207.566132 181.379578,215.788055 188.062027,225.082001 
	C183.202423,224.798172 179.952560,222.053268 179.628677,218.053345 
	C179.258316,213.479599 180.580536,208.726639 181.553543,204.133377 
	C181.693466,203.472809 183.995651,203.270264 185.450623,202.373352 
	C185.604080,201.890961 185.667496,201.845016 185.667496,201.845016 
z"/>
<path fill="#BE9D31" opacity="1.000000" stroke="none" 
	d="
M221.975082,221.003952 
	C223.015686,217.950211 224.180634,214.929123 224.997879,211.816742 
	C225.173309,211.148666 224.257812,209.885406 223.516113,209.418076 
	C223.156021,209.191193 221.503189,210.057037 221.382690,210.628067 
	C221.190079,211.540817 221.786667,212.620087 222.049606,213.628967 
	C223.017792,213.266220 224.488388,213.177856 224.863419,212.491165 
	C226.185638,210.070206 227.056595,207.408157 228.245636,204.907425 
	C229.160400,202.983566 230.296112,201.164764 231.928177,199.150391 
	C232.723663,199.011887 232.924591,199.022278 233.125504,199.032684 
	C232.064713,203.350632 229.124054,207.367722 230.187683,212.332993 
	C228.187256,215.007660 225.814133,218.180618 223.064575,221.458466 
	C222.459229,221.365707 222.221542,221.179245 221.975082,221.003952 
z"/>
<path fill="#C19F32" opacity="1.000000" stroke="none" 
	d="
M114.954308,220.957458 
	C113.946442,222.541641 112.938583,224.125824 111.930717,225.709991 
	C112.123253,216.961807 107.991653,208.369186 112.493919,200.066162 
	C113.041130,206.736237 113.588333,213.406326 114.429291,220.499146 
	C114.723045,220.921875 114.954308,220.957458 114.954308,220.957458 
z"/>
<path fill="#BB9B31" opacity="1.000000" stroke="none" 
	d="
M269.729675,222.776291 
	C265.794769,224.003693 262.214691,225.673096 258.545837,225.898621 
	C252.414185,226.275558 250.139618,221.614273 253.272842,216.016632 
	C254.172241,221.631958 256.307434,223.462357 262.196838,223.003204 
	C264.609894,222.815063 266.954498,221.791306 269.352417,221.244949 
	C269.476105,221.216766 269.809021,222.106796 269.729675,222.776291 
z"/>
<path fill="#BE9D31" opacity="1.000000" stroke="none" 
	d="
M76.896591,209.023331 
	C80.559029,211.013214 82.317978,214.224350 81.172432,218.125351 
	C80.458534,220.556396 78.356773,222.579895 76.245140,223.969772 
	C76.811668,221.007599 78.454147,217.705276 77.654274,215.175064 
	C76.784592,212.423996 73.645302,210.390442 71.201889,207.723480 
	C72.453079,207.632172 73.833603,207.531418 75.653030,207.667694 
	C76.360153,208.277573 76.628372,208.650452 76.896591,209.023331 
z"/>
<path fill="#C19F32" opacity="1.000000" stroke="none" 
	d="
M331.626526,221.338043 
	C328.178558,212.890884 328.123260,211.833069 330.861023,209.978989 
	C332.902069,215.628510 332.513336,222.924286 340.831573,224.321625 
	C336.881744,226.978699 335.484375,226.539749 331.626526,221.338043 
z"/>
<path fill="#BB9B31" opacity="1.000000" stroke="none" 
	d="
M71.320953,197.333084 
	C69.535179,202.148834 67.894577,207.025558 65.907631,211.756805 
	C64.767838,214.470856 63.065922,216.948837 61.617077,219.533096 
	C61.096565,219.243423 60.576057,218.953766 60.055550,218.664108 
	C63.190807,211.560532 66.326065,204.456955 69.978149,197.169891 
	C70.494972,196.986389 70.943199,196.944855 71.037651,197.041901 
	C71.132103,197.138947 71.320946,197.333084 71.320953,197.333084 
z"/>
<path fill="#BE9D31" opacity="1.000000" stroke="none" 
	d="
M363.420044,222.570953 
	C359.628021,223.974533 355.922058,225.599167 352.119171,225.871948 
	C347.677307,226.190567 345.922577,223.419724 346.544159,217.495392 
	C350.874756,225.516266 357.403809,222.761292 363.420044,222.570953 
z"/>
<path fill="#BE9D31" opacity="1.000000" stroke="none" 
	d="
M134.991028,226.015472 
	C128.536865,225.596436 127.268761,224.354691 127.117767,217.436722 
	C131.941345,224.811066 138.216614,223.384201 144.503845,221.896881 
	C144.602646,222.350403 144.701462,222.803909 144.800278,223.257431 
	C141.670990,224.171677 138.541702,225.085907 134.991028,226.015472 
z"/>
<path fill="#B2932E" opacity="1.000000" stroke="none" 
	d="
M123.831100,210.954102 
	C124.960175,207.965454 126.368614,205.042419 127.093063,201.958710 
	C127.424095,200.549622 126.407112,198.823853 125.657776,197.418335 
	C125.314056,197.594986 125.350159,197.670822 125.350159,197.670822 
	C125.932114,196.647827 126.514076,195.624817 127.096039,194.601822 
	C128.128265,195.675278 129.881836,196.636948 130.068512,197.841446 
	C130.899643,203.204453 128.440170,207.479156 124.400276,211.111298 
	C124.042572,211.057877 123.831100,210.954102 123.831100,210.954102 
z"/>
<path fill="#BB9B31" opacity="1.000000" stroke="none" 
	d="
M305.075989,220.741440 
	C308.104370,222.464539 311.034790,223.805573 313.745544,225.046082 
	C311.471466,226.668182 308.057098,226.888153 305.136932,224.876495 
	C303.761047,223.928680 303.196136,221.310074 302.998627,219.373611 
	C302.912445,218.528458 304.732758,217.545670 305.567200,216.527054 
	C306.020355,215.973816 306.221619,215.214218 306.536469,214.547699 
	C306.016998,214.351669 305.497498,214.155640 304.977997,213.959610 
	C304.977997,216.092865 304.977997,218.226120 305.075989,220.741440 
z"/>
<path fill="#090702" opacity="1.000000" stroke="none" 
	d="
M42.607010,200.063812 
	C41.912899,203.380890 40.987648,206.770218 39.567329,210.603500 
	C36.863846,210.871246 34.046848,212.447205 32.996410,208.937103 
	C32.996410,208.937103 33.000633,209.004135 33.308880,209.055145 
	C33.752357,208.716080 33.887585,208.326004 34.022820,207.935928 
	C34.022820,207.935928 34.009403,208.009399 34.312546,208.054138 
	C34.751389,207.711243 34.887089,207.323593 35.022789,206.935944 
	C35.022789,206.935944 35.009388,207.009399 35.312859,207.054230 
	C35.751759,206.711334 35.887180,206.323624 36.022598,205.935913 
	C36.022598,205.935913 36.009293,206.009308 36.314445,206.055328 
	C36.754356,205.712662 36.889118,205.323959 37.023880,204.935257 
	C37.023880,204.935257 37.003456,205.002670 37.283600,205.157166 
	C38.059071,204.861115 38.554401,204.410568 39.049732,203.960037 
	C39.049732,203.960037 39.025238,204.032364 39.261574,203.965210 
	C39.677479,203.581390 39.857052,203.264709 40.036629,202.948044 
	C40.036629,202.948044 40.025650,203.024460 40.315254,202.901306 
	C40.751221,202.335220 40.897583,201.892288 41.043949,201.449356 
	C41.487923,201.011597 41.931900,200.573822 42.607010,200.063812 
z"/>
<path fill="#090702" opacity="1.000000" stroke="none" 
	d="
M168.607025,200.063812 
	C167.912903,203.380890 166.987656,206.770218 165.567322,210.603500 
	C162.863861,210.871201 160.046829,212.447266 158.996414,208.937103 
	C158.996414,208.937103 159.000610,209.004120 159.308868,209.055145 
	C159.752350,208.716095 159.887589,208.326004 160.022812,207.935928 
	C160.022812,207.935928 160.009399,208.009399 160.312546,208.054138 
	C160.751389,207.711243 160.887085,207.323593 161.022797,206.935944 
	C161.022781,206.935944 161.009369,207.009399 161.312851,207.054230 
	C161.751755,206.711334 161.887177,206.323624 162.022598,205.935913 
	C162.022598,205.935913 162.009308,206.009308 162.314453,206.055328 
	C162.754349,205.712662 162.889114,205.323959 163.023880,204.935257 
	C163.023880,204.935257 163.003433,205.002655 163.283600,205.157150 
	C164.059067,204.861099 164.554398,204.410568 165.049728,203.960037 
	C165.049728,203.960037 165.025223,204.032349 165.261551,203.965210 
	C165.677460,203.581375 165.857040,203.264709 166.036621,202.948044 
	C166.036636,202.948044 166.025635,203.024445 166.315247,202.901306 
	C166.751236,202.335220 166.897598,201.892288 167.043976,201.449356 
	C167.487930,201.011597 167.931900,200.573837 168.607025,200.063812 
z"/>
<path fill="#090702" opacity="1.000000" stroke="none" 
	d="
M387.607056,200.063812 
	C386.912903,203.380890 385.987671,206.770218 384.567322,210.603500 
	C381.863831,210.871246 379.046844,212.447189 377.996399,208.937103 
	C377.996399,208.937103 378.000549,209.004105 378.308838,209.055130 
	C378.752350,208.716080 378.887573,208.326004 379.022827,207.935928 
	C379.022827,207.935928 379.009369,208.009384 379.312500,208.054138 
	C379.751373,207.711227 379.887085,207.323593 380.022797,206.935944 
	C380.022797,206.935944 380.009369,207.009384 380.312836,207.054214 
	C380.751740,206.711334 380.887177,206.323624 381.022583,205.935913 
	C381.022614,205.935913 381.009277,206.009308 381.314453,206.055344 
	C381.754395,205.712677 381.889130,205.323975 382.023865,204.935257 
	C382.023865,204.935257 382.003418,205.002640 382.283569,205.157135 
	C383.059052,204.861099 383.554382,204.410568 384.049744,203.960022 
	C384.049744,203.960037 384.025238,204.032349 384.261597,203.965210 
	C384.677490,203.581390 384.857056,203.264725 385.036621,202.948044 
	C385.036621,202.948044 385.025635,203.024445 385.315247,202.901306 
	C385.751190,202.335220 385.897552,201.892288 386.043884,201.449341 
	C386.487915,201.011581 386.931915,200.573822 387.607056,200.063812 
z"/>
<path fill="#AD8F2D" opacity="1.000000" stroke="none" 
	d="
M203.911957,197.589569 
	C200.115311,196.751556 196.608093,196.143433 193.574432,195.617416 
	C197.054642,193.896133 205.148407,193.741364 206.487137,195.985016 
	C207.171051,197.131180 206.606995,199.021988 205.664200,200.556458 
	C205.176605,199.644119 204.688995,198.731781 203.911957,197.589569 
z"/>
<path fill="#715D1D" opacity="1.000000" stroke="none" 
	d="
M290.129333,211.257187 
	C290.157654,211.645676 290.185974,212.034164 290.116699,212.700302 
	C287.243530,212.819733 284.467896,212.661514 280.616302,212.441956 
	C283.716339,209.087601 286.475250,206.102356 289.734924,203.172089 
	C290.369781,203.360672 290.503876,203.494278 290.414612,203.869629 
	C288.239746,206.131729 286.288239,208.152115 283.738220,210.792099 
	C286.620087,211.001816 288.374725,211.129501 290.129333,211.257187 
z"/>
<path fill="#BB9B31" opacity="1.000000" stroke="none" 
	d="
M75.937332,195.021591 
	C78.235275,196.856888 81.154655,198.318680 82.574913,200.681534 
	C83.309883,201.904297 81.386902,204.724716 80.507568,207.280151 
	C79.171204,203.454239 78.612991,200.439789 77.064331,198.073547 
	C76.381821,197.030701 73.686844,197.304993 71.613243,197.157196 
	C71.320946,197.333084 71.132103,197.138947 71.055397,196.758560 
	C70.997833,195.810333 71.016968,195.242493 71.036110,194.674652 
	C71.786720,194.504868 72.537331,194.335083 73.888039,194.319672 
	C74.971207,194.656540 75.454269,194.839066 75.937332,195.021591 
z"/>
<path fill="#AD8F2D" opacity="1.000000" stroke="none" 
	d="
M233.401199,198.900024 
	C232.924591,199.022278 232.723663,199.011887 232.221558,198.983032 
	C231.563416,198.230652 231.318390,196.955597 230.830521,196.854691 
	C228.471085,196.366669 226.046356,196.194290 223.701721,195.127075 
	C227.825836,195.127075 231.949951,195.127075 236.074081,195.127075 
	C236.160172,195.518967 236.246277,195.910858 236.332382,196.302750 
	C235.447220,197.124283 234.562057,197.945831 233.401199,198.900024 
z"/>
<path fill="#7B6620" opacity="1.000000" stroke="none" 
	d="
M32.653831,209.086884 
	C34.046848,212.447205 36.863846,210.871246 39.485176,210.965332 
	C39.820431,211.424820 39.742767,211.966400 39.496857,212.725952 
	C35.821224,213.544525 32.313835,214.145111 28.260164,214.759674 
	C27.569754,214.654129 27.425623,214.534622 27.281496,214.415131 
	C26.264996,213.714874 25.248495,213.014618 24.392277,212.424774 
	C26.953032,211.393845 29.632143,210.315262 32.653831,209.086884 
z"/>
<path fill="#7B6620" opacity="1.000000" stroke="none" 
	d="
M158.653839,209.086884 
	C160.046829,212.447266 162.863861,210.871201 165.485168,210.965347 
	C165.820419,211.424835 165.742767,211.966446 165.496857,212.725983 
	C161.821167,213.544586 158.313721,214.145233 154.258347,214.760956 
	C153.565582,214.656815 153.420776,214.537613 153.275955,214.418411 
	C152.261841,213.716263 151.247742,213.014130 150.394836,212.423599 
	C152.952560,211.393936 155.631912,210.315308 158.653839,209.086884 
z"/>
<path fill="#B5962F" opacity="1.000000" stroke="none" 
	d="
M62.957886,224.980911 
	C57.994904,225.565979 54.469013,223.040527 51.098343,220.179108 
	C51.359009,219.627472 51.619675,219.075821 51.880337,218.524185 
	C55.336403,220.325562 58.792469,222.126938 62.661823,224.213501 
	C63.075111,224.498688 62.957886,224.980911 62.957886,224.980911 
z"/>
<path fill="#7B6620" opacity="1.000000" stroke="none" 
	d="
M377.653809,209.086884 
	C379.046844,212.447189 381.863831,210.871246 384.485168,210.965347 
	C384.820435,211.424835 384.742767,211.966431 384.496826,212.725983 
	C380.821045,213.544678 377.313538,214.145416 373.257690,214.761581 
	C372.564331,214.657990 372.419312,214.538971 372.274292,214.419968 
	C371.261414,213.717224 370.248535,213.014496 369.395966,212.422974 
	C371.952362,211.393890 374.631775,210.315277 377.653809,209.086884 
z"/>
<path fill="#B5962F" opacity="1.000000" stroke="none" 
	d="
M70.729034,194.603226 
	C71.016968,195.242493 70.997833,195.810333 70.960945,196.661514 
	C70.943199,196.944855 70.494972,196.986389 70.270355,197.000702 
	C68.881020,196.507980 67.716301,196.000946 66.094406,195.294891 
	C67.733414,195.005875 69.077682,194.768829 70.729034,194.603226 
z"/>
<path fill="#7B6620" opacity="1.000000" stroke="none" 
	d="
M124.056786,211.174805 
	C123.070473,212.608841 122.069946,213.925964 120.618454,215.220352 
	C120.037025,215.060120 119.906563,214.922638 119.776108,214.785156 
	C120.945999,213.610367 122.115875,212.435577 123.558426,211.107452 
	C123.831100,210.954102 124.042572,211.057877 124.056786,211.174805 
z"/>
<path fill="#060502" opacity="1.000000" stroke="none" 
	d="
M214.611420,224.896454 
	C213.833618,225.199188 213.070023,225.284775 212.306427,225.370361 
	C212.327011,225.040848 212.347610,224.711319 212.368210,224.381805 
	C213.120682,224.480972 213.873169,224.580139 214.611420,224.896454 
z"/>
<path fill="#060502" opacity="1.000000" stroke="none" 
	d="
M210.912048,215.945953 
	C211.452423,215.254593 211.992783,214.563232 212.533142,213.871872 
	C212.887634,214.180420 213.242126,214.488968 213.596619,214.797501 
	C212.932693,215.181305 212.268768,215.565109 211.306168,215.987274 
	C211.007492,216.025650 210.912064,215.945953 210.912048,215.945953 
z"/>
<path fill="#060502" opacity="1.000000" stroke="none" 
	d="
M221.761658,221.150238 
	C222.221542,221.179245 222.459229,221.365707 222.857391,221.714050 
	C222.285294,222.223770 221.543945,222.582779 220.802597,222.941788 
	C221.051147,222.393372 221.299698,221.844955 221.761658,221.150238 
z"/>
<path fill="#060502" opacity="1.000000" stroke="none" 
	d="
M63.181679,225.073334 
	C62.957886,224.980911 63.075111,224.498688 63.014790,224.257996 
	C63.609055,224.294952 64.263641,224.572586 64.918228,224.850235 
	C64.413979,224.955399 63.909725,225.060577 63.181679,225.073334 
z"/>
<path fill="#B5962F" opacity="1.000000" stroke="none" 
	d="
M75.773743,194.877075 
	C75.454269,194.839066 74.971207,194.656540 74.274948,194.324661 
	C74.577881,194.361038 75.094017,194.546799 75.773743,194.877075 
z"/>
<path fill="#7B6620" opacity="1.000000" stroke="none" 
	d="
M24.836893,218.496658 
	C24.193926,218.853256 23.550955,219.209839 22.907984,219.566422 
	C23.052513,219.019836 23.197046,218.473267 23.821964,218.032501 
	C24.480530,218.257767 24.658710,218.377213 24.836893,218.496658 
z"/>
<path fill="#7B6620" opacity="1.000000" stroke="none" 
	d="
M150.836899,218.496643 
	C150.193924,218.853241 149.550964,219.209824 148.907990,219.566422 
	C149.052536,219.019836 149.197067,218.473251 149.821991,218.032486 
	C150.480530,218.257751 150.658707,218.377197 150.836899,218.496643 
z"/>
<path fill="#7B6620" opacity="1.000000" stroke="none" 
	d="
M369.836914,218.496643 
	C369.193939,218.853256 368.550964,219.209854 367.907990,219.566437 
	C368.052521,219.019852 368.197052,218.473267 368.821960,218.032501 
	C369.480560,218.257767 369.658752,218.377213 369.836914,218.496643 
z"/>
<path fill="#BB9B31" opacity="1.000000" stroke="none" 
	d="
M98.871475,222.120544 
	C98.899231,222.503647 99.036499,222.763412 99.173767,223.023178 
	C99.367516,222.813965 99.561256,222.604736 99.755005,222.395523 
	C99.496994,222.262741 99.238983,222.129974 98.871475,222.120544 
z"/>
<path fill="#B5962F" opacity="1.000000" stroke="none" 
	d="
M76.929901,208.699966 
	C76.628372,208.650452 76.360153,208.277573 76.034378,207.678574 
	C76.339378,207.280533 76.701927,207.108612 77.742081,206.952850 
	C78.668922,207.000397 78.918144,207.031769 79.167358,207.063156 
	C78.432640,207.500961 77.697929,207.938782 76.929901,208.699966 
z"/>
<path fill="#B2932E" opacity="1.000000" stroke="none" 
	d="
M125.324768,197.634705 
	C124.989700,197.643036 124.643906,197.611649 124.298119,197.580261 
	C124.365036,197.325699 124.431946,197.071121 124.498856,196.816559 
	C124.690895,196.975540 124.882927,197.134506 125.212563,197.482147 
	C125.350159,197.670822 125.314056,197.594986 125.324768,197.634705 
z"/>
<path fill="#060502" opacity="1.000000" stroke="none" 
	d="
M211.053085,216.067902 
	C210.852554,216.454086 210.606430,216.798004 210.360321,217.141937 
	C210.447906,216.817307 210.535492,216.492691 210.767578,216.057007 
	C210.912064,215.945953 211.007492,216.025650 211.053085,216.067902 
z"/>
<path fill="#BB9B31" opacity="1.000000" stroke="none" 
	d="
M79.677887,206.787354 
	C78.918144,207.031769 78.668922,207.000397 78.045074,206.928833 
	C78.556610,206.238403 79.442772,205.588150 80.328934,204.937897 
	C80.282089,205.462448 80.235252,205.987000 79.677887,206.787354 
z"/>
<path fill="#AD8F2D" opacity="1.000000" stroke="none" 
	d="
M189.967316,196.970367 
	C190.312149,197.278183 190.677917,197.278610 191.043671,197.279053 
	C190.691864,197.073685 190.340057,196.868332 189.967316,196.970367 
z"/>
<path fill="#BB9B31" opacity="1.000000" stroke="none" 
	d="
M88.232788,197.347504 
	C87.944077,197.871628 88.035751,198.253967 88.127426,198.636322 
	C88.469116,198.511505 88.810799,198.386673 89.152481,198.261841 
	C88.972717,197.909805 88.792946,197.557770 88.232788,197.347504 
z"/>
<path fill="#715D1D" opacity="1.000000" stroke="none" 
	d="
M293.255798,198.289062 
	C293.306458,198.573761 293.581177,199.169769 293.562561,199.936142 
	C293.339417,199.604477 293.409607,199.102432 293.255798,198.289062 
z"/>
<path fill="#C19F32" opacity="1.000000" stroke="none" 
	d="
M185.565765,201.899017 
	C185.766663,201.696915 186.005890,201.486740 186.245117,201.276581 
	C185.984924,201.122986 185.724731,200.969391 185.464539,200.815796 
	C185.271835,201.253830 185.079132,201.691849 185.276947,201.987457 
	C185.667496,201.845016 185.604080,201.890961 185.565765,201.899017 
z"/>
<path fill="#7B6620" opacity="1.000000" stroke="none" 
	d="
M383.734924,203.814880 
	C383.554382,204.410568 383.059052,204.861099 382.248383,205.158112 
	C382.428711,204.559647 382.924408,204.114700 383.734924,203.814880 
z"/>
<path fill="#7B6620" opacity="1.000000" stroke="none" 
	d="
M164.734894,203.814880 
	C164.554398,204.410568 164.059067,204.861099 163.248398,205.158127 
	C163.428711,204.559647 163.924393,204.114700 164.734894,203.814880 
z"/>
<path fill="#7B6620" opacity="1.000000" stroke="none" 
	d="
M38.734898,203.814880 
	C38.554401,204.410568 38.059071,204.861115 37.248390,205.158127 
	C37.428719,204.559647 37.924393,204.114685 38.734898,203.814880 
z"/>
<path fill="#715D1D" opacity="1.000000" stroke="none" 
	d="
M290.034729,203.026520 
	C290.236206,202.402283 290.638641,201.978607 291.423584,201.618637 
	C291.904510,201.829712 292.002960,201.977081 291.970459,202.355469 
	C291.438965,202.933624 291.038483,203.280762 290.637970,203.627899 
	C290.503876,203.494278 290.369781,203.360672 290.034729,203.026520 
z"/>
<path fill="#7B6620" opacity="1.000000" stroke="none" 
	d="
M24.039371,217.952881 
	C24.276279,217.839066 24.776167,217.910675 25.056473,218.239471 
	C24.658710,218.377213 24.480530,218.257767 24.039371,217.952881 
z"/>
<path fill="#7B6620" opacity="1.000000" stroke="none" 
	d="
M153.151520,216.137970 
	C152.805450,216.353165 152.459381,216.568375 152.113312,216.783569 
	C152.079041,216.414093 152.044754,216.044617 152.402649,215.675339 
	C152.913727,215.829697 153.032623,215.983841 153.151520,216.137970 
z"/>
<path fill="#7B6620" opacity="1.000000" stroke="none" 
	d="
M118.661697,217.571976 
	C118.422073,217.860245 118.182442,218.148514 117.563889,218.379730 
	C117.073524,218.170990 116.962082,218.019287 116.850632,217.867584 
	C116.932739,217.530167 117.112892,217.257538 117.818314,217.127945 
	C118.384262,217.328125 118.522980,217.450043 118.661697,217.571976 
z"/>
<path fill="#7B6620" opacity="1.000000" stroke="none" 
	d="
M150.039398,217.952881 
	C150.276306,217.839066 150.776199,217.910660 151.056488,218.239441 
	C150.658707,218.377197 150.480530,218.257751 150.039398,217.952881 
z"/>
<path fill="#7B6620" opacity="1.000000" stroke="none" 
	d="
M369.039368,217.952927 
	C369.276306,217.839096 369.776184,217.910690 370.056519,218.239456 
	C369.658752,218.377213 369.480560,218.257767 369.039368,217.952927 
z"/>
<path fill="#7B6620" opacity="1.000000" stroke="none" 
	d="
M39.697311,202.927704 
	C39.857052,203.264709 39.677479,203.581390 39.223637,203.969574 
	C39.085579,203.663162 39.221790,203.285263 39.697311,202.927704 
z"/>
<path fill="#7B6620" opacity="1.000000" stroke="none" 
	d="
M385.719940,201.612122 
	C385.897552,201.892288 385.751190,202.335220 385.278015,202.911560 
	C385.099487,202.621613 385.247742,202.198242 385.719940,201.612122 
z"/>
<path fill="#7B6620" opacity="1.000000" stroke="none" 
	d="
M117.344330,218.555756 
	C117.112335,218.896606 116.720978,219.004379 116.329613,219.112152 
	C116.342216,218.815628 116.354820,218.519119 116.609032,218.045090 
	C116.962082,218.019287 117.073524,218.170990 117.344330,218.555756 
z"/>
<path fill="#7B6620" opacity="1.000000" stroke="none" 
	d="
M166.720001,201.612122 
	C166.897598,201.892288 166.751236,202.335220 166.278061,202.911560 
	C166.099503,202.621613 166.247757,202.198257 166.720001,201.612122 
z"/>
<path fill="#7B6620" opacity="1.000000" stroke="none" 
	d="
M115.219696,220.883759 
	C114.954308,220.957458 114.723045,220.921875 114.730469,220.806061 
	C114.927788,220.542603 115.117683,220.394958 115.307587,220.247299 
	C115.366753,220.434875 115.425926,220.622467 115.219696,220.883759 
z"/>
<path fill="#7B6620" opacity="1.000000" stroke="none" 
	d="
M40.719986,201.612122 
	C40.897583,201.892288 40.751221,202.335220 40.278038,202.911560 
	C40.099483,202.621613 40.247753,202.198257 40.719986,201.612122 
z"/>
<path fill="#715D1D" opacity="1.000000" stroke="none" 
	d="
M291.669312,201.454407 
	C291.871277,201.074661 292.210052,200.922867 292.790771,200.915588 
	C293.032684,201.060135 292.952820,201.014023 293.000824,201.273727 
	C293.051025,201.735916 293.053223,201.938400 293.055450,202.140900 
	C293.055450,202.140900 293.057495,202.041977 292.842529,202.054276 
	C292.452148,202.085876 292.276794,202.105164 292.101410,202.124466 
	C292.002960,201.977081 291.904510,201.829712 291.669312,201.454407 
z"/>
<path fill="#C19F32" opacity="1.000000" stroke="none" 
	d="
M187.937775,197.598160 
	C187.855469,197.828674 187.773178,198.059189 187.690887,198.289703 
	C187.912964,198.176620 188.135040,198.063538 188.160126,197.807190 
	C187.963135,197.663895 187.937775,197.598160 187.937775,197.598160 
z"/>
<path fill="#C19F32" opacity="1.000000" stroke="none" 
	d="
M187.974243,197.697327 
	C187.912857,197.644730 187.840363,197.558716 187.767883,197.472702 
	C187.690933,197.572174 187.613998,197.671646 187.537064,197.771133 
	C187.644531,197.841293 187.751999,197.911438 187.898621,197.789871 
	C187.937775,197.598160 187.963135,197.663895 187.974243,197.697327 
z"/>
<path fill="#060502" opacity="1.000000" stroke="none" 
	d="
M74.494736,225.506195 
	C74.487106,225.484787 74.502365,225.527603 74.494736,225.506195 
z"/>
<path fill="#7B6620" opacity="1.000000" stroke="none" 
	d="
M36.760281,205.019730 
	C36.889118,205.323959 36.754356,205.712662 36.277740,206.061935 
	C36.122818,205.716415 36.309750,205.410309 36.760281,205.019730 
z"/>
<path fill="#7B6620" opacity="1.000000" stroke="none" 
	d="
M34.758881,207.019699 
	C34.887089,207.323593 34.751389,207.711243 34.275803,208.060837 
	C34.122272,207.716339 34.308620,207.409897 34.758881,207.019699 
z"/>
<path fill="#7B6620" opacity="1.000000" stroke="none" 
	d="
M161.758942,206.020004 
	C161.887177,206.323624 161.751755,206.711334 161.276123,207.060883 
	C161.122375,206.716507 161.308823,206.410309 161.758942,206.020004 
z"/>
<path fill="#7B6620" opacity="1.000000" stroke="none" 
	d="
M35.758949,206.019989 
	C35.887180,206.323624 35.751759,206.711334 35.276123,207.060883 
	C35.122379,206.716507 35.308838,206.410294 35.758949,206.019989 
z"/>
<path fill="#7B6620" opacity="1.000000" stroke="none" 
	d="
M160.758881,207.019699 
	C160.887085,207.323593 160.751389,207.711243 160.275818,208.060837 
	C160.122284,207.716339 160.308624,207.409897 160.758881,207.019699 
z"/>
<path fill="#7B6620" opacity="1.000000" stroke="none" 
	d="
M379.758881,207.019699 
	C379.887085,207.323593 379.751373,207.711227 379.275787,208.060822 
	C379.122284,207.716339 379.308624,207.409897 379.758881,207.019699 
z"/>
<path fill="#7B6620" opacity="1.000000" stroke="none" 
	d="
M33.759140,208.019806 
	C33.887585,208.326004 33.752357,208.716080 33.276512,209.064117 
	C33.122417,208.715942 33.308937,208.409821 33.759140,208.019806 
z"/>
<path fill="#7B6620" opacity="1.000000" stroke="none" 
	d="
M159.759125,208.019821 
	C159.887589,208.326004 159.752350,208.716095 159.276520,209.064117 
	C159.122406,208.715942 159.308929,208.409836 159.759125,208.019821 
z"/>
<path fill="#7B6620" opacity="1.000000" stroke="none" 
	d="
M378.759125,208.019806 
	C378.887573,208.326004 378.752350,208.716080 378.276489,209.064102 
	C378.122375,208.715942 378.308899,208.409821 378.759125,208.019806 
z"/>
<path fill="#7B6620" opacity="1.000000" stroke="none" 
	d="
M381.760254,205.019730 
	C381.889130,205.323975 381.754395,205.712677 381.277771,206.061951 
	C381.122803,205.716400 381.309723,205.410294 381.760254,205.019730 
z"/>
<path fill="#7B6620" opacity="1.000000" stroke="none" 
	d="
M162.760284,205.019730 
	C162.889114,205.323959 162.754349,205.712662 162.277740,206.061935 
	C162.122818,205.716400 162.309738,205.410309 162.760284,205.019730 
z"/>
<path fill="#7B6620" opacity="1.000000" stroke="none" 
	d="
M372.151825,216.137680 
	C371.805756,216.352859 371.459656,216.568039 371.113586,216.783218 
	C371.079407,216.413620 371.045227,216.044006 371.402954,215.675354 
	C371.913818,215.830078 372.032837,215.983871 372.151825,216.137680 
z"/>
<path fill="#7B6620" opacity="1.000000" stroke="none" 
	d="
M384.697296,202.927689 
	C384.857056,203.264725 384.677490,203.581390 384.223633,203.969574 
	C384.085571,203.663162 384.221771,203.285248 384.697296,202.927689 
z"/>
<path fill="#7B6620" opacity="1.000000" stroke="none" 
	d="
M27.924820,214.959045 
	C28.048332,215.476501 27.864624,215.741928 27.122614,215.879303 
	C26.497347,215.712677 26.334101,215.607437 26.170853,215.502182 
	C26.405533,215.247910 26.640215,214.993637 27.078196,214.577240 
	C27.425623,214.534622 27.569754,214.654129 27.924820,214.959045 
z"/>
<path fill="#7B6620" opacity="1.000000" stroke="none" 
	d="
M120.358711,215.407990 
	C120.379997,215.890213 120.174751,216.132111 119.556374,216.280472 
	C119.053261,216.082794 118.927979,215.948700 118.802704,215.814606 
	C118.883698,215.481110 119.061157,215.210983 119.555595,214.894699 
	C119.906563,214.922638 120.037025,215.060120 120.358711,215.407990 
z"/>
<path fill="#7B6620" opacity="1.000000" stroke="none" 
	d="
M152.623795,215.438904 
	C152.606598,214.999069 152.780029,214.814270 153.124496,214.533142 
	C153.420776,214.537613 153.565582,214.656815 153.922974,214.960327 
	C154.050262,215.473312 153.869492,215.736374 153.372375,216.035889 
	C153.032623,215.983841 152.913727,215.829697 152.623795,215.438904 
z"/>
<path fill="#7B6620" opacity="1.000000" stroke="none" 
	d="
M372.922302,214.960968 
	C373.050110,215.473480 372.869476,215.736404 372.372559,216.035690 
	C372.032837,215.983871 371.913818,215.830078 371.624084,215.438934 
	C371.606598,214.998795 371.779510,214.814484 372.123169,214.534302 
	C372.419312,214.538971 372.564331,214.657990 372.922302,214.960968 
z"/>
<path fill="#7B6620" opacity="1.000000" stroke="none" 
	d="
M26.899952,215.983994 
	C26.681545,216.337097 26.223783,216.524109 25.766022,216.711121 
	C25.764069,216.473557 25.762115,216.235977 25.965508,215.750305 
	C26.334101,215.607437 26.497347,215.712677 26.899952,215.983994 
z"/>
<path fill="#7B6620" opacity="1.000000" stroke="none" 
	d="
M119.363098,216.421127 
	C119.396812,216.875870 119.214485,217.100845 118.831184,217.436142 
	C118.522980,217.450043 118.384262,217.328125 118.041931,217.018387 
	C117.913902,216.497757 118.088554,216.229431 118.582489,215.920090 
	C118.927979,215.948700 119.053261,216.082794 119.363098,216.421127 
z"/>
<path fill="#7B6620" opacity="1.000000" stroke="none" 
	d="
M380.758942,206.020004 
	C380.887177,206.323624 380.751740,206.711334 380.276123,207.060883 
	C380.122375,206.716507 380.308838,206.410309 380.758942,206.020004 
z"/>
<path fill="#7B6620" opacity="1.000000" stroke="none" 
	d="
M165.697296,202.927704 
	C165.857040,203.264709 165.677460,203.581375 165.223618,203.969574 
	C165.085571,203.663162 165.221786,203.285263 165.697296,202.927704 
z"/>
<path fill="#060502" opacity="1.000000" stroke="none" 
	d="
M291.970459,202.355469 
	C292.276794,202.105164 292.452148,202.085876 292.891968,202.055542 
	C292.313965,204.928589 291.471558,207.812683 290.379272,210.976990 
	C288.374725,211.129501 286.620087,211.001816 283.738220,210.792099 
	C286.288239,208.152115 288.239746,206.131729 290.414612,203.869629 
	C291.038483,203.280762 291.438965,202.933624 291.970459,202.355469 
z"/>
<path fill="#060502" opacity="1.000000" stroke="none" 
	d="
M293.364075,202.165466 
	C293.053223,201.938400 293.051025,201.735916 293.017639,201.230789 
	C293.215210,201.348770 293.443970,201.769409 293.364075,202.165466 
z"/>
</svg>